<svg xmlns="http://www.w3.org/2000/svg" xmlns:xlink="http://www.w3.org/1999/xlink" width="500" zoomAndPan="magnify" viewBox="0 0 375 374.999991" height="500" preserveAspectRatio="xMidYMid meet" version="1.0"><defs><g/><clipPath id="4f92fd08e7"><path d="M 0 37.5 L 337.5 37.5 L 337.5 375 L 0 375 Z M 0 37.5 " clip-rule="nonzero"/></clipPath><clipPath id="e43b957070"><path d="M 50.789062 64.601562 L 287 64.601562 L 287 281.351562 L 50.789062 281.351562 Z M 50.789062 64.601562 " clip-rule="nonzero"/></clipPath></defs><g clip-path="url(#4f92fd08e7)"><path fill="#5b5299" d="M 168.75 37.5 C 75.550781 37.5 0 113.050781 0 206.25 C 0 299.449219 75.550781 375 168.75 375 C 261.949219 375 337.5 299.449219 337.5 206.25 C 337.5 113.050781 261.949219 37.5 168.75 37.5 " fill-opacity="1" fill-rule="nonzero"/></g><g clip-path="url(#e43b957070)"><path fill="#4be4ff" d="M 168.914062 64.601562 C 129.003906 64.601562 96.5625 96.996094 96.5625 136.851562 C 96.5625 155.746094 107.152344 169.886719 117.386719 183.550781 C 125.628906 194.515625 133.347656 204.972656 134.640625 216.855469 L 134.640625 243.324219 C 134.640625 256.707031 144.59375 267.789062 157.488281 269.644531 L 157.488281 273.746094 C 157.488281 277.933594 160.910156 281.351562 165.105469 281.351562 L 172.71875 281.351562 C 176.914062 281.351562 180.335938 277.933594 180.335938 273.746094 L 180.335938 269.644531 C 193.234375 267.789062 203.183594 256.707031 203.183594 243.324219 L 203.183594 220.269531 C 203.183594 207.914062 210.382812 197.304688 218.535156 186.328125 L 218.757812 187.191406 C 219.175781 188.914062 220.707031 190.085938 222.460938 190.085938 L 237.15625 190.085938 C 238.898438 190.085938 240.429688 188.914062 240.847656 187.191406 L 244.460938 172.78125 C 245.488281 172.394531 246.515625 171.980469 247.585938 171.488281 L 260.347656 179.140625 C 261.820312 180.046875 263.769531 179.824219 264.988281 178.5625 L 275.386719 168.175781 C 276.605469 166.972656 276.859375 165.027344 275.949219 163.542969 L 268.289062 150.8125 C 268.796875 149.773438 269.210938 148.71875 269.585938 147.679688 L 284.027344 144.085938 C 285.738281 143.652344 286.914062 142.136719 286.914062 140.386719 L 286.914062 125.710938 C 286.914062 123.957031 285.738281 122.441406 284.027344 122.011719 L 269.585938 118.417969 C 269.210938 117.375 268.796875 116.324219 268.289062 115.28125 L 275.949219 102.550781 C 276.859375 101.066406 276.605469 99.121094 275.386719 97.917969 L 264.988281 87.535156 C 263.769531 86.273438 261.820312 86.050781 260.347656 86.972656 L 247.585938 94.605469 C 246.515625 94.117188 245.488281 93.699219 244.460938 93.3125 L 240.847656 78.890625 C 240.429688 77.183594 238.898438 76.007812 237.15625 76.007812 L 222.460938 76.007812 C 220.707031 76.007812 219.175781 77.183594 218.757812 78.890625 L 217.613281 83.464844 C 204.746094 71.761719 187.65625 64.601562 168.914062 64.601562 Z M 168.914062 72.207031 C 187.195312 72.207031 203.71875 79.8125 215.441406 92.050781 L 215.144531 93.3125 C 214.117188 93.699219 213.046875 94.117188 212.019531 94.605469 L 199.257812 86.972656 C 197.738281 86.050781 195.835938 86.273438 194.617188 87.535156 L 184.21875 97.917969 C 182.96875 99.121094 182.730469 101.066406 183.652344 102.550781 L 191.300781 115.28125 C 190.808594 116.324219 190.390625 117.375 190.003906 118.417969 L 175.578125 122.011719 C 173.867188 122.441406 172.675781 123.957031 172.675781 125.710938 L 172.675781 140.386719 C 172.675781 142.136719 173.867188 143.652344 175.578125 144.085938 L 190.003906 147.679688 C 190.390625 148.71875 190.808594 149.773438 191.300781 150.8125 L 183.652344 163.542969 C 182.730469 165.027344 182.96875 166.972656 184.21875 168.175781 L 194.617188 178.5625 C 195.835938 179.824219 197.738281 180.046875 199.257812 179.140625 L 212.019531 171.488281 C 213.046875 171.980469 214.117188 172.394531 215.144531 172.78125 L 216.140625 176.777344 C 215.558594 177.535156 215.023438 178.261719 214.457031 179.019531 C 205.933594 190.472656 197.128906 202.296875 195.714844 216.46875 L 172.71875 216.46875 L 172.71875 205.296875 C 172.71875 203.203125 171.023438 201.496094 168.914062 201.496094 C 166.800781 201.496094 165.105469 203.203125 165.105469 205.296875 L 165.105469 216.46875 L 142.332031 216.46875 C 140.960938 202.296875 132.097656 190.472656 123.484375 178.976562 C 114.011719 166.320312 104.179688 153.234375 104.179688 136.851562 C 104.179688 101.214844 133.226562 72.207031 168.914062 72.207031 Z M 168.390625 83.613281 C 158.21875 83.6875 148.28125 86.671875 139.640625 92.347656 C 137.882812 93.492188 137.40625 95.851562 138.566406 97.605469 C 139.28125 98.71875 140.5 99.3125 141.738281 99.3125 C 142.464844 99.3125 143.195312 99.121094 143.832031 98.691406 C 153.695312 92.214844 165.550781 89.835938 177.242188 91.976562 C 179.308594 92.363281 181.289062 90.996094 181.660156 88.917969 C 182.046875 86.851562 180.679688 84.875 178.609375 84.503906 C 175.203125 83.867188 171.785156 83.585938 168.390625 83.613281 Z M 225.421875 83.613281 L 234.183594 83.613281 L 237.574219 97.160156 C 237.871094 98.453125 238.867188 99.464844 240.117188 99.847656 C 242.066406 100.457031 244.042969 101.289062 245.976562 102.285156 C 247.125 102.9375 248.582031 102.863281 249.710938 102.210938 L 261.714844 94.976562 L 267.875 101.1875 L 260.675781 113.160156 C 259.988281 114.300781 259.960938 115.714844 260.601562 116.886719 C 261.597656 118.832031 262.445312 120.792969 263.039062 122.738281 C 263.425781 123.988281 264.453125 124.996094 265.746094 125.292969 L 279.296875 128.664062 L 279.296875 137.429688 L 265.746094 140.800781 C 264.453125 141.097656 263.425781 142.109375 263.039062 143.355469 C 262.445312 145.300781 261.597656 147.261719 260.601562 149.210938 C 259.960938 150.382812 259.988281 151.792969 260.675781 152.9375 L 267.875 164.910156 L 261.714844 171.117188 L 249.710938 163.886719 C 248.582031 163.203125 247.125 163.15625 245.976562 163.8125 C 244.042969 164.804688 242.066406 165.636719 240.117188 166.246094 C 238.867188 166.632812 237.871094 167.644531 237.574219 168.933594 L 234.183594 182.480469 L 225.421875 182.480469 L 222.03125 168.933594 C 221.984375 168.859375 222 168.757812 221.925781 168.683594 C 221.539062 167.496094 220.660156 166.589844 219.441406 166.246094 C 217.539062 165.636719 215.558594 164.804688 213.609375 163.8125 C 212.4375 163.15625 211.023438 163.230469 209.890625 163.886719 L 197.886719 171.117188 L 191.6875 164.910156 L 198.886719 152.9375 C 199.570312 151.792969 199.597656 150.382812 199.003906 149.210938 C 197.960938 147.261719 197.160156 145.300781 196.566406 143.355469 C 196.175781 142.109375 195.152344 141.097656 193.855469 140.800781 L 180.292969 137.429688 L 180.292969 128.664062 L 193.855469 125.292969 C 195.152344 124.996094 196.175781 123.988281 196.566406 122.738281 C 197.160156 120.792969 197.960938 118.832031 199.003906 116.886719 C 199.597656 115.714844 199.570312 114.300781 198.886719 113.160156 L 191.6875 101.1875 L 197.886719 94.976562 L 209.890625 102.210938 C 211.023438 102.863281 212.4375 102.894531 213.609375 102.285156 C 215.558594 101.289062 217.539062 100.457031 219.441406 99.847656 C 220.125 99.65625 220.734375 99.238281 221.121094 98.75 C 221.582031 98.289062 221.882812 97.753906 222.03125 97.160156 L 223.859375 89.898438 Z M 69.996094 93.164062 C 68.523438 93.195312 67.109375 94.085938 66.515625 95.542969 C 65.742188 97.488281 66.679688 99.714844 68.628906 100.488281 L 82.757812 106.191406 C 83.21875 106.386719 83.710938 106.472656 84.1875 106.472656 C 85.6875 106.472656 87.117188 105.566406 87.710938 104.097656 C 88.5 102.136719 87.546875 99.921875 85.597656 99.136719 L 71.484375 93.433594 C 70.992188 93.238281 70.5 93.148438 69.996094 93.164062 Z M 229.792969 114.035156 C 219.292969 114.035156 210.800781 122.5625 210.800781 133.046875 C 210.800781 143.535156 219.292969 152.0625 229.792969 152.0625 C 240.296875 152.0625 248.835938 143.535156 248.835938 133.046875 C 248.835938 122.5625 240.296875 114.035156 229.792969 114.035156 Z M 229.792969 121.640625 C 236.085938 121.640625 241.21875 126.765625 241.21875 133.046875 C 241.21875 139.332031 236.101562 144.457031 229.792969 144.457031 C 223.503906 144.457031 218.371094 139.332031 218.371094 133.046875 C 218.371094 126.765625 223.503906 121.640625 229.792969 121.640625 Z M 54.675781 133.046875 C 52.5625 133.046875 50.867188 134.757812 50.867188 136.851562 C 50.867188 138.945312 52.5625 140.652344 54.675781 140.652344 L 77.523438 140.652344 C 79.632812 140.652344 81.332031 138.945312 81.332031 136.851562 C 81.332031 134.757812 79.632812 133.046875 77.523438 133.046875 Z M 153.679688 148.257812 C 152.714844 148.257812 151.730469 148.628906 150.988281 149.371094 C 149.5 150.859375 149.5 153.265625 150.988281 154.75 L 158.605469 162.355469 C 159.347656 163.097656 160.316406 163.46875 161.296875 163.46875 C 162.277344 163.46875 163.246094 163.097656 163.988281 162.355469 C 165.476562 160.871094 165.476562 158.464844 163.988281 156.976562 L 156.375 149.371094 C 155.628906 148.628906 154.648438 148.257812 153.679688 148.257812 Z M 176.511719 155.878906 C 175.53125 155.878906 174.566406 156.25 173.804688 156.992188 L 166.21875 164.582031 C 165.507812 165.296875 165.105469 166.261719 165.105469 167.273438 L 165.105469 190.085938 C 165.105469 192.183594 166.800781 193.890625 168.914062 193.890625 C 171.023438 193.890625 172.71875 192.183594 172.71875 190.085938 L 172.71875 168.847656 L 179.207031 162.382812 C 180.691406 160.882812 180.691406 158.492188 179.207031 156.992188 C 178.445312 156.25 177.480469 155.878906 176.511719 155.878906 Z M 84.230469 167.242188 C 83.738281 167.226562 83.234375 167.316406 82.757812 167.507812 L 68.628906 173.214844 C 66.679688 173.984375 65.742188 176.214844 66.515625 178.160156 C 67.125 179.644531 68.554688 180.535156 70.054688 180.535156 C 70.53125 180.535156 71.007812 180.445312 71.484375 180.269531 L 85.597656 174.566406 C 87.546875 173.777344 88.5 171.5625 87.710938 169.605469 C 87.117188 168.148438 85.71875 167.273438 84.230469 167.242188 Z M 142.257812 224.3125 L 195.566406 224.3125 L 195.566406 228.558594 L 142.257812 235.214844 Z M 195.566406 236.222656 L 195.566406 243.324219 C 195.566406 243.472656 195.523438 243.621094 195.523438 243.785156 L 156.847656 248.613281 C 154.765625 248.863281 153.292969 250.765625 153.5625 252.84375 C 153.800781 254.777344 155.4375 256.171875 157.324219 256.171875 C 157.472656 256.171875 157.636719 256.171875 157.800781 256.144531 L 193.542969 251.6875 C 190.4375 257.96875 184.011719 262.335938 176.527344 262.335938 L 161.296875 262.335938 C 150.796875 262.335938 142.257812 253.8125 142.257812 243.324219 L 142.257812 242.878906 Z M 165.105469 269.941406 L 172.71875 269.941406 L 172.71875 273.746094 L 165.105469 273.746094 Z M 165.105469 269.941406 " fill-opacity="1" fill-rule="nonzero"/></g><g fill="#ff0000" fill-opacity="1"><g transform="translate(45.846633, 317.002362)"><g><path d="M 19.226562 0 L 22.351562 -3.125 L 22.351562 -10.316406 L 19.226562 -13.441406 L 6.566406 -13.441406 L 6.566406 -16.878906 L 22.351562 -16.878906 L 22.351562 -21.882812 L 4.6875 -21.882812 L 1.5625 -18.757812 L 1.5625 -11.566406 L 4.6875 -8.441406 L 17.347656 -8.441406 L 17.347656 -5 L 1.5625 -5 L 1.5625 0 Z M 19.226562 0 "/></g></g></g><g fill="#ff0000" fill-opacity="1"><g transform="translate(73.10111, 317.002362)"><g><path d="M 7.347656 -21.882812 L 0.15625 -21.882812 L 0.15625 -16.878906 L 2.5 -16.878906 L 2.5 0 L 7.503906 0 L 7.503906 -13.347656 C 9.753906 -10.285156 12.003906 -7.222656 14.285156 -4.15625 C 16.535156 -7.222656 18.820312 -10.285156 21.101562 -13.347656 L 21.101562 0 L 26.101562 0 L 26.101562 -21.882812 L 21.257812 -21.882812 C 18.914062 -18.757812 16.597656 -15.597656 14.285156 -12.472656 Z M 7.347656 -21.882812 "/></g></g></g><g fill="#ff0000" fill-opacity="1"><g transform="translate(104.106069, 317.002362)"><g><path d="M 23.601562 0 L 23.601562 -18.757812 L 20.476562 -21.882812 L 2.34375 -21.882812 L 2.34375 -16.878906 L 18.601562 -16.878906 L 18.601562 -13.441406 L 4.6875 -13.441406 L 1.5625 -10.316406 L 1.5625 -3.125 L 4.6875 0 L 17.035156 0 L 17.035156 -5 L 6.566406 -5 L 6.566406 -8.441406 L 18.601562 -8.441406 L 18.601562 -3.125 L 21.726562 0 Z M 23.601562 0 "/></g></g></g><g fill="#ff0000" fill-opacity="1"><g transform="translate(132.610707, 317.002362)"><g><path d="M 19.070312 -5.3125 L 22.195312 -8.441406 L 22.195312 -18.757812 L 19.070312 -21.882812 L 0.15625 -21.882812 L 0.15625 -16.878906 L 17.191406 -16.878906 L 17.191406 -10.316406 L 7.503906 -10.316406 L 7.503906 -15.316406 L 2.5 -15.316406 L 2.5 0 L 7.503906 0 L 7.503906 -5.3125 L 12.722656 -5.3125 C 14.285156 -3.53125 15.816406 -1.75 17.410156 0 L 23.757812 0 C 22.164062 -1.75 20.632812 -3.53125 19.070312 -5.3125 Z M 19.070312 -5.3125 "/></g></g></g><g fill="#ff0000" fill-opacity="1"><g transform="translate(160.021456, 317.002362)"><g><path d="M 13.785156 0 L 13.785156 -16.878906 L 22.414062 -16.878906 L 22.414062 -21.882812 L 0.15625 -21.882812 L 0.15625 -16.878906 L 8.785156 -16.878906 L 8.785156 0 Z M 13.785156 0 "/></g></g></g><g fill="#ff0000" fill-opacity="1"><g transform="translate(185.932011, 317.002362)"><g/></g></g><g fill="#ff0000" fill-opacity="1"><g transform="translate(201.778781, 317.002362)"><g><path d="M 22.820312 0 L 22.820312 -5 L 6.566406 -5 L 6.566406 -16.878906 L 18.601562 -16.878906 L 18.601562 -13.753906 L 23.601562 -13.753906 L 23.601562 -18.757812 L 20.476562 -21.882812 L 4.6875 -21.882812 L 1.5625 -18.757812 L 1.5625 -3.125 L 4.6875 0 Z M 22.820312 0 "/></g></g></g><g fill="#ff0000" fill-opacity="1"><g transform="translate(230.283426, 317.002362)"><g><path d="M 6.566406 0 L 6.566406 -21.882812 L 1.5625 -21.882812 L 1.5625 0 Z M 6.566406 0 "/></g></g></g><g fill="#ff0000" fill-opacity="1"><g transform="translate(241.754639, 317.002362)"><g><path d="M 13.785156 0 L 13.785156 -16.878906 L 22.414062 -16.878906 L 22.414062 -21.882812 L 0.15625 -21.882812 L 0.15625 -16.878906 L 8.785156 -16.878906 L 8.785156 0 Z M 13.785156 0 "/></g></g></g><g fill="#ff0000" fill-opacity="1"><g transform="translate(267.665183, 317.002362)"><g><path d="M 20.476562 0 L 23.601562 -3.125 L 23.601562 -21.882812 L 18.601562 -21.882812 L 18.601562 -13.597656 L 6.566406 -13.597656 L 6.566406 -21.882812 L 1.5625 -21.882812 L 1.5625 -11.722656 L 4.6875 -8.597656 L 18.601562 -8.597656 L 18.601562 -5 L 3.125 -5 L 3.125 0 Z M 20.476562 0 "/></g></g></g><g fill="#00ffff" fill-opacity="1"><g transform="translate(44.674262, 317.002362)"><g><path d="M 19.226562 0 L 22.351562 -3.125 L 22.351562 -10.316406 L 19.226562 -13.441406 L 6.566406 -13.441406 L 6.566406 -16.878906 L 22.351562 -16.878906 L 22.351562 -21.882812 L 4.6875 -21.882812 L 1.5625 -18.757812 L 1.5625 -11.566406 L 4.6875 -8.441406 L 17.347656 -8.441406 L 17.347656 -5 L 1.5625 -5 L 1.5625 0 Z M 19.226562 0 "/></g></g></g><g fill="#00ffff" fill-opacity="1"><g transform="translate(71.928739, 317.002362)"><g><path d="M 7.347656 -21.882812 L 0.15625 -21.882812 L 0.15625 -16.878906 L 2.5 -16.878906 L 2.5 0 L 7.503906 0 L 7.503906 -13.347656 C 9.753906 -10.285156 12.003906 -7.222656 14.285156 -4.15625 C 16.535156 -7.222656 18.820312 -10.285156 21.101562 -13.347656 L 21.101562 0 L 26.101562 0 L 26.101562 -21.882812 L 21.257812 -21.882812 C 18.914062 -18.757812 16.597656 -15.597656 14.285156 -12.472656 Z M 7.347656 -21.882812 "/></g></g></g><g fill="#00ffff" fill-opacity="1"><g transform="translate(102.933697, 317.002362)"><g><path d="M 23.601562 0 L 23.601562 -18.757812 L 20.476562 -21.882812 L 2.34375 -21.882812 L 2.34375 -16.878906 L 18.601562 -16.878906 L 18.601562 -13.441406 L 4.6875 -13.441406 L 1.5625 -10.316406 L 1.5625 -3.125 L 4.6875 0 L 17.035156 0 L 17.035156 -5 L 6.566406 -5 L 6.566406 -8.441406 L 18.601562 -8.441406 L 18.601562 -3.125 L 21.726562 0 Z M 23.601562 0 "/></g></g></g><g fill="#00ffff" fill-opacity="1"><g transform="translate(131.438336, 317.002362)"><g><path d="M 19.070312 -5.3125 L 22.195312 -8.441406 L 22.195312 -18.757812 L 19.070312 -21.882812 L 0.15625 -21.882812 L 0.15625 -16.878906 L 17.191406 -16.878906 L 17.191406 -10.316406 L 7.503906 -10.316406 L 7.503906 -15.316406 L 2.5 -15.316406 L 2.5 0 L 7.503906 0 L 7.503906 -5.3125 L 12.722656 -5.3125 C 14.285156 -3.53125 15.816406 -1.75 17.410156 0 L 23.757812 0 C 22.164062 -1.75 20.632812 -3.53125 19.070312 -5.3125 Z M 19.070312 -5.3125 "/></g></g></g><g fill="#00ffff" fill-opacity="1"><g transform="translate(158.849085, 317.002362)"><g><path d="M 13.785156 0 L 13.785156 -16.878906 L 22.414062 -16.878906 L 22.414062 -21.882812 L 0.15625 -21.882812 L 0.15625 -16.878906 L 8.785156 -16.878906 L 8.785156 0 Z M 13.785156 0 "/></g></g></g><g fill="#00ffff" fill-opacity="1"><g transform="translate(184.75964, 317.002362)"><g/></g></g><g fill="#00ffff" fill-opacity="1"><g transform="translate(200.60641, 317.002362)"><g><path d="M 22.820312 0 L 22.820312 -5 L 6.566406 -5 L 6.566406 -16.878906 L 18.601562 -16.878906 L 18.601562 -13.753906 L 23.601562 -13.753906 L 23.601562 -18.757812 L 20.476562 -21.882812 L 4.6875 -21.882812 L 1.5625 -18.757812 L 1.5625 -3.125 L 4.6875 0 Z M 22.820312 0 "/></g></g></g><g fill="#00ffff" fill-opacity="1"><g transform="translate(229.111054, 317.002362)"><g><path d="M 6.566406 0 L 6.566406 -21.882812 L 1.5625 -21.882812 L 1.5625 0 Z M 6.566406 0 "/></g></g></g><g fill="#00ffff" fill-opacity="1"><g transform="translate(240.582268, 317.002362)"><g><path d="M 13.785156 0 L 13.785156 -16.878906 L 22.414062 -16.878906 L 22.414062 -21.882812 L 0.15625 -21.882812 L 0.15625 -16.878906 L 8.785156 -16.878906 L 8.785156 0 Z M 13.785156 0 "/></g></g></g><g fill="#00ffff" fill-opacity="1"><g transform="translate(266.492812, 317.002362)"><g><path d="M 20.476562 0 L 23.601562 -3.125 L 23.601562 -21.882812 L 18.601562 -21.882812 L 18.601562 -13.597656 L 6.566406 -13.597656 L 6.566406 -21.882812 L 1.5625 -21.882812 L 1.5625 -11.722656 L 4.6875 -8.597656 L 18.601562 -8.597656 L 18.601562 -5 L 3.125 -5 L 3.125 0 Z M 20.476562 0 "/></g></g></g><g fill="#ff66c4" fill-opacity="1"><g transform="translate(45.260447, 317.002362)"><g><path d="M 19.226562 0 L 22.351562 -3.125 L 22.351562 -10.316406 L 19.226562 -13.441406 L 6.566406 -13.441406 L 6.566406 -16.878906 L 22.351562 -16.878906 L 22.351562 -21.882812 L 4.6875 -21.882812 L 1.5625 -18.757812 L 1.5625 -11.566406 L 4.6875 -8.441406 L 17.347656 -8.441406 L 17.347656 -5 L 1.5625 -5 L 1.5625 0 Z M 19.226562 0 "/></g></g></g><g fill="#ff66c4" fill-opacity="1"><g transform="translate(72.514925, 317.002362)"><g><path d="M 7.347656 -21.882812 L 0.15625 -21.882812 L 0.15625 -16.878906 L 2.5 -16.878906 L 2.5 0 L 7.503906 0 L 7.503906 -13.347656 C 9.753906 -10.285156 12.003906 -7.222656 14.285156 -4.15625 C 16.535156 -7.222656 18.820312 -10.285156 21.101562 -13.347656 L 21.101562 0 L 26.101562 0 L 26.101562 -21.882812 L 21.257812 -21.882812 C 18.914062 -18.757812 16.597656 -15.597656 14.285156 -12.472656 Z M 7.347656 -21.882812 "/></g></g></g><g fill="#ff66c4" fill-opacity="1"><g transform="translate(103.519883, 317.002362)"><g><path d="M 23.601562 0 L 23.601562 -18.757812 L 20.476562 -21.882812 L 2.34375 -21.882812 L 2.34375 -16.878906 L 18.601562 -16.878906 L 18.601562 -13.441406 L 4.6875 -13.441406 L 1.5625 -10.316406 L 1.5625 -3.125 L 4.6875 0 L 17.035156 0 L 17.035156 -5 L 6.566406 -5 L 6.566406 -8.441406 L 18.601562 -8.441406 L 18.601562 -3.125 L 21.726562 0 Z M 23.601562 0 "/></g></g></g><g fill="#ff66c4" fill-opacity="1"><g transform="translate(132.024521, 317.002362)"><g><path d="M 19.070312 -5.3125 L 22.195312 -8.441406 L 22.195312 -18.757812 L 19.070312 -21.882812 L 0.15625 -21.882812 L 0.15625 -16.878906 L 17.191406 -16.878906 L 17.191406 -10.316406 L 7.503906 -10.316406 L 7.503906 -15.316406 L 2.5 -15.316406 L 2.5 0 L 7.503906 0 L 7.503906 -5.3125 L 12.722656 -5.3125 C 14.285156 -3.53125 15.816406 -1.75 17.410156 0 L 23.757812 0 C 22.164062 -1.75 20.632812 -3.53125 19.070312 -5.3125 Z M 19.070312 -5.3125 "/></g></g></g><g fill="#ff66c4" fill-opacity="1"><g transform="translate(159.435271, 317.002362)"><g><path d="M 13.785156 0 L 13.785156 -16.878906 L 22.414062 -16.878906 L 22.414062 -21.882812 L 0.15625 -21.882812 L 0.15625 -16.878906 L 8.785156 -16.878906 L 8.785156 0 Z M 13.785156 0 "/></g></g></g><g fill="#ff66c4" fill-opacity="1"><g transform="translate(185.345826, 317.002362)"><g/></g></g><g fill="#ff66c4" fill-opacity="1"><g transform="translate(201.192596, 317.002362)"><g><path d="M 22.820312 0 L 22.820312 -5 L 6.566406 -5 L 6.566406 -16.878906 L 18.601562 -16.878906 L 18.601562 -13.753906 L 23.601562 -13.753906 L 23.601562 -18.757812 L 20.476562 -21.882812 L 4.6875 -21.882812 L 1.5625 -18.757812 L 1.5625 -3.125 L 4.6875 0 Z M 22.820312 0 "/></g></g></g><g fill="#ff66c4" fill-opacity="1"><g transform="translate(229.69724, 317.002362)"><g><path d="M 6.566406 0 L 6.566406 -21.882812 L 1.5625 -21.882812 L 1.5625 0 Z M 6.566406 0 "/></g></g></g><g fill="#ff66c4" fill-opacity="1"><g transform="translate(241.168454, 317.002362)"><g><path d="M 13.785156 0 L 13.785156 -16.878906 L 22.414062 -16.878906 L 22.414062 -21.882812 L 0.15625 -21.882812 L 0.15625 -16.878906 L 8.785156 -16.878906 L 8.785156 0 Z M 13.785156 0 "/></g></g></g><g fill="#ff66c4" fill-opacity="1"><g transform="translate(267.078997, 317.002362)"><g><path d="M 20.476562 0 L 23.601562 -3.125 L 23.601562 -21.882812 L 18.601562 -21.882812 L 18.601562 -13.597656 L 6.566406 -13.597656 L 6.566406 -21.882812 L 1.5625 -21.882812 L 1.5625 -11.722656 L 4.6875 -8.597656 L 18.601562 -8.597656 L 18.601562 -5 L 3.125 -5 L 3.125 0 Z M 20.476562 0 "/></g></g></g></svg>